<?xml version="1.0" standalone="no"?>
<!DOCTYPE svg PUBLIC "-//W3C//DTD SVG 20010904//EN"
 "http://www.w3.org/TR/2001/REC-SVG-20010904/DTD/svg10.dtd">
<svg version="1.0" xmlns="http://www.w3.org/2000/svg"
 width="827.000000pt" height="827.000000pt" viewBox="0 0 827.000000 827.000000"
 preserveAspectRatio="xMidYMid meet">
<metadata>
Created by potrace 1.11, written by Peter Selinger 2001-2013
</metadata>
<g transform="translate(0.000000,827.000000) scale(0.100000,-0.100000)"
fill="#000000" stroke="none">
<path d="M4577 6653 c-71 -23 -81 -30 -128 -87 -28 -33 -59 -71 -69 -83 -10
-12 -16 -23 -14 -26 2 -2 -2 -10 -11 -17 -8 -7 -15 -21 -15 -31 0 -11 -5 -19
-12 -19 -6 0 -9 -3 -5 -6 3 -4 -3 -29 -14 -58 -11 -28 -22 -62 -25 -75 -3 -13
-10 -33 -15 -43 -6 -11 -12 -27 -14 -36 -2 -9 -52 -163 -111 -342 -59 -179
-109 -327 -109 -330 -1 -3 -4 -12 -8 -20 -8 -22 -207 -622 -211 -640 -2 -8
-32 -98 -66 -200 -34 -102 -63 -193 -65 -203 -2 -9 -7 -22 -10 -27 -3 -5 -8
-18 -10 -27 -3 -10 -54 -166 -115 -348 -61 -181 -112 -334 -114 -340 -2 -5 -6
-23 -11 -40 -4 -16 -10 -34 -14 -40 -3 -5 -6 -12 -6 -15 -1 -7 -45 -142 -52
-160 -3 -8 -7 -19 -9 -25 -1 -5 -25 -80 -54 -165 -29 -85 -54 -162 -56 -170
-3 -15 -151 -461 -162 -490 -3 -8 -6 -18 -7 -22 -2 -5 -3 -9 -5 -10 -13 -18
-6 -67 51 -326 12 -51 23 -103 25 -115 10 -60 14 -79 33 -167 11 -52 22 -106
25 -120 10 -57 36 -173 39 -176 4 -4 21 10 98 79 25 23 79 71 119 107 41 36
84 74 96 85 12 11 50 45 85 75 35 30 75 66 89 80 22 22 139 121 148 126 3 2
170 496 176 519 5 22 77 241 86 260 4 11 25 74 46 140 20 66 42 126 47 133 5
6 6 12 3 12 -4 0 -2 9 4 21 6 11 13 28 15 37 4 22 252 776 270 822 14 35 194
582 201 610 5 21 143 432 151 450 3 8 7 20 8 26 4 17 125 383 138 419 7 17 12
33 12 37 0 3 3 10 8 14 4 4 7 17 7 29 0 12 3 25 8 29 4 4 7 11 7 14 1 7 82
256 92 282 7 18 8 20 25 95 48 207 -51 401 -248 483 -70 29 -97 35 -189 37
-62 2 -97 -3 -158 -22z m102 -323 c45 -22 81 -41 81 -43 0 -4 -69 -210 -77
-227 -3 -8 -7 -19 -8 -25 -2 -5 -35 -104 -75 -220 -89 -263 -249 -733 -300
-885 -21 -63 -96 -281 -165 -485 -70 -203 -128 -377 -130 -385 -3 -8 -41 -121
-85 -250 -45 -129 -83 -242 -85 -250 -2 -8 -4 -16 -4 -17 -1 -2 -1 -5 -1 -8 0
-3 -6 -18 -14 -34 -8 -15 -17 -39 -20 -52 -4 -18 -83 -253 -139 -409 -4 -12
-135 -406 -152 -458 -3 -7 -5 -16 -6 -20 -3 -21 -35 -60 -64 -80 -42 -29 -72
-22 -122 27 -31 30 -40 48 -50 99 -11 60 -10 68 23 170 19 59 37 114 41 122 3
8 7 20 8 25 2 6 50 154 109 330 58 176 120 363 137 415 17 52 33 102 36 110 4
8 7 17 7 20 1 3 35 104 75 225 40 121 74 225 76 230 1 6 5 17 8 25 14 34 329
987 333 1009 3 13 12 37 20 52 8 16 12 29 9 29 -4 0 -3 6 2 13 4 6 8 17 9 22
3 12 122 374 131 395 3 8 7 20 8 26 2 6 15 46 30 89 15 44 29 86 31 94 2 9 20
63 40 121 19 58 37 110 38 117 1 7 5 16 9 19 4 4 7 15 7 24 0 20 25 73 52 113
l20 27 38 -30 c21 -17 74 -48 119 -70z m356 -113 c-2 -29 -16 -86 -30 -127
-15 -41 -28 -79 -29 -85 -1 -5 -20 -62 -41 -125 -22 -63 -40 -117 -40 -120 -5
-22 -59 -188 -66 -200 -6 -12 -237 -711 -246 -745 -1 -5 -19 -57 -38 -115 -20
-58 -38 -113 -40 -122 -2 -9 -9 -27 -16 -40 -7 -13 -12 -25 -11 -28 1 -3 -8
-34 -20 -70 -12 -36 -23 -68 -24 -72 -1 -5 -3 -10 -4 -13 -1 -3 -3 -8 -4 -12
-1 -5 -53 -161 -115 -348 -62 -187 -114 -344 -116 -350 -1 -5 -5 -17 -8 -25
-4 -8 -23 -67 -43 -130 -20 -63 -41 -121 -47 -127 -5 -7 -7 -13 -4 -13 3 0
-23 -87 -59 -192 -35 -106 -76 -229 -90 -273 -14 -44 -28 -87 -31 -95 -4 -8
-7 -17 -8 -20 -11 -42 -108 -328 -116 -341 -16 -30 -81 -69 -115 -69 -34 0
-75 34 -100 82 -14 27 -10 42 66 266 45 130 83 244 85 252 2 8 4 15 4 15 1 0
221 646 225 660 2 6 6 17 9 25 3 8 36 105 73 215 126 374 459 1356 578 1705
43 124 79 232 81 240 2 8 37 112 77 230 l74 215 81 0 c45 0 85 4 89 7 16 16
23 -6 19 -55z m-1779 -3760 c33 -35 97 -68 134 -69 15 -1 45 8 67 19 l38 20
18 -23 c9 -12 17 -27 17 -32 0 -15 54 -60 90 -76 36 -14 87 -15 110 -1 23 14
-2 -18 -34 -45 -17 -14 -40 -34 -53 -45 -12 -11 -47 -42 -78 -69 -30 -27 -70
-63 -89 -80 l-33 -32 -74 29 c-87 35 -81 31 -85 59 -2 13 -8 42 -14 66 -5 23
-13 59 -16 80 -3 20 -8 40 -10 43 -2 4 -6 24 -10 45 -3 22 -9 55 -14 74 -5 19
-12 51 -15 70 -5 33 -4 34 10 15 9 -11 27 -33 41 -48z"/>
<path d="M5856 5361 c-3 -4 -31 -87 -64 -185 l-60 -178 37 -15 c20 -9 47 -20
61 -26 14 -5 34 -12 45 -14 11 -2 22 -8 23 -13 2 -6 12 -10 22 -10 10 0 22 -4
25 -10 3 -5 13 -10 20 -10 8 0 38 -11 67 -24 29 -13 123 -52 208 -86 85 -35
169 -69 185 -76 17 -7 147 -61 290 -119 143 -58 269 -109 280 -114 11 -4 22
-8 25 -8 3 0 16 -6 30 -13 14 -8 27 -15 30 -15 3 -1 17 -7 32 -13 16 -6 90
-37 165 -68 76 -31 139 -57 140 -58 2 -1 -34 -17 -80 -36 -45 -18 -106 -44
-135 -57 -29 -12 -54 -23 -56 -23 -2 0 -21 -8 -42 -17 -22 -9 -41 -17 -44 -18
-11 -3 -66 -26 -85 -35 -17 -8 -70 -30 -85 -35 -3 -1 -16 -6 -30 -12 -14 -6
-92 -39 -175 -73 -341 -141 -346 -143 -354 -140 -2 1 -7 -2 -10 -7 -3 -4 -55
-28 -116 -52 -60 -24 -132 -54 -160 -66 -27 -12 -72 -30 -100 -40 -27 -10 -54
-21 -60 -25 -5 -4 -37 -17 -70 -30 -77 -30 -89 -39 -74 -56 6 -8 8 -14 4 -14
-4 0 -3 -6 3 -12 6 -7 11 -16 11 -21 1 -14 34 -122 42 -137 4 -8 18 -46 30
-85 12 -38 23 -71 24 -73 3 -3 138 52 240 98 22 10 69 30 105 44 73 30 86 36
150 64 25 11 164 71 310 132 146 61 274 115 285 120 25 11 91 39 175 75 95 40
132 56 163 72 15 8 27 11 27 7 0 -3 6 -2 13 4 6 5 50 26 97 45 47 19 108 45
135 58 28 12 59 24 69 26 11 2 24 7 30 12 6 5 54 27 107 49 53 22 109 47 125
55 l28 15 1 185 0 185 -30 16 c-16 8 -75 34 -130 57 -177 73 -279 116 -320
135 -22 10 -42 18 -45 19 -3 1 -23 9 -45 19 -22 10 -56 24 -76 31 -20 7 -45
18 -55 24 -11 6 -48 22 -84 37 -61 24 -81 33 -162 68 -18 8 -109 47 -203 86
-93 40 -201 86 -240 102 -95 41 -135 58 -165 70 -14 6 -38 17 -55 24 -16 8
-106 46 -200 85 -93 39 -187 79 -208 89 -20 10 -39 15 -41 11z"/>
<path d="M2415 5352 c-9 -8 -232 -106 -245 -107 -3 0 -15 -6 -26 -13 -12 -6
-24 -8 -28 -5 -3 3 -6 1 -6 -5 0 -7 -5 -12 -11 -12 -10 0 -110 -41 -189 -78
-19 -9 -40 -17 -45 -18 -6 -1 -33 -12 -60 -24 -28 -12 -70 -31 -95 -42 -25
-11 -54 -23 -65 -28 -31 -12 -146 -61 -190 -80 -22 -10 -65 -28 -95 -40 -30
-12 -79 -33 -108 -46 -29 -13 -56 -24 -60 -24 -4 0 -20 -7 -37 -16 -16 -8 -68
-31 -115 -50 -47 -19 -101 -42 -120 -51 -19 -8 -51 -22 -70 -30 -19 -8 -51
-22 -70 -31 -19 -8 -39 -17 -45 -18 -5 -1 -73 -30 -149 -63 -77 -34 -143 -61
-148 -61 -5 0 -16 -7 -25 -15 -12 -12 -15 -37 -14 -113 1 -53 2 -104 2 -112
-2 -121 0 -145 14 -160 8 -9 21 -17 28 -17 6 0 37 -12 67 -26 30 -14 116 -51
190 -82 74 -31 149 -63 165 -70 17 -7 181 -77 365 -155 184 -78 349 -148 365
-155 17 -7 64 -27 105 -44 41 -17 89 -38 105 -46 17 -8 59 -26 95 -40 63 -26
89 -37 160 -68 19 -8 96 -40 170 -72 74 -31 155 -65 179 -76 43 -20 56 -17 62
14 3 16 5 24 18 62 8 22 18 46 24 53 5 6 7 12 4 12 -4 0 9 44 28 98 19 53 35
100 35 104 0 4 -10 10 -22 14 -13 4 -45 17 -73 29 -27 13 -102 44 -165 69 -63
26 -124 51 -135 56 -11 5 -63 27 -115 48 -52 22 -196 81 -320 132 -124 51
-279 115 -345 142 -66 27 -133 55 -150 63 -16 7 -55 23 -85 35 -57 22 -82 33
-161 68 -26 12 -59 24 -73 28 -14 3 -28 10 -31 14 -5 8 15 17 340 149 110 45
209 86 220 91 11 5 110 46 220 90 110 45 214 87 230 95 17 7 131 54 255 105
124 50 239 97 255 105 17 7 56 23 87 35 32 12 60 25 62 29 3 4 -21 86 -53 182
-46 140 -61 175 -77 177 -11 1 -24 -1 -29 -6z"/>
</g>
</svg>
